<svg xmlns="http://www.w3.org/2000/svg" viewBox="0 0 760 1040" role="img" aria-label="jharokha arch ornament">
  <title>Jharokha arch</title>
  <defs>
    <linearGradient id="bp-gold-stroke" x1="0" y1="0" x2="0" y2="1">
      <stop offset="0" stop-color="#F2A72E"/>
      <stop offset="0.5" stop-color="#FFD27D"/>
      <stop offset="1" stop-color="#A36F1C"/>
    </linearGradient>
  </defs>
  <g fill="none" stroke="url(#bp-gold-stroke)">
    <path d="M40 1020 L40 360 Q40 220 140 130 Q220 50 380 30 Q540 50 620 130 Q720 220 720 360 L720 1020 Z" stroke-width="3"/>
    <path d="M62 1000 L62 360 Q62 230 156 148 Q230 76 380 56 Q530 76 604 148 Q698 230 698 360 L698 1000 Z" stroke-width="1.5" opacity="0.85"/>
  </g>
  <g fill="#F2A72E">
    <circle cx="380" cy="44" r="5"/>
    <circle cx="300" cy="60" r="4"/><circle cx="460" cy="60" r="4"/>
    <circle cx="220" cy="100" r="4"/><circle cx="540" cy="100" r="4"/>
    <circle cx="160" cy="160" r="4"/><circle cx="600" cy="160" r="4"/>
    <circle cx="110" cy="240" r="3"/><circle cx="650" cy="240" r="3"/>
    <circle cx="80" cy="340" r="3"/><circle cx="680" cy="340" r="3"/>
  </g>
  <g fill="none" stroke="#F2A72E" stroke-width="1.2" opacity="0.85">
    <path d="M40 360 Q90 380 120 420 Q140 460 130 500"/>
    <path d="M40 420 Q70 440 90 470"/>
    <path d="M720 360 Q670 380 640 420 Q620 460 630 500"/>
    <path d="M720 420 Q690 440 670 470"/>
  </g>
  <circle cx="78" cy="408" r="6" fill="#F2A72E"/>
  <circle cx="682" cy="408" r="6" fill="#F2A72E"/>
  <g fill="none" stroke="#F2A72E" stroke-width="1.5">
    <line x1="40" y1="980" x2="720" y2="980"/>
    <line x1="40" y1="1000" x2="720" y2="1000" opacity="0.6"/>
  </g>
  <g fill="#F2A72E">
    <circle cx="100" cy="990" r="3"/><circle cx="200" cy="990" r="3"/><circle cx="300" cy="990" r="3"/>
    <circle cx="380" cy="990" r="5"/>
    <circle cx="460" cy="990" r="3"/><circle cx="560" cy="990" r="3"/><circle cx="660" cy="990" r="3"/>
  </g>
</svg>
