<svg xmlns="http://www.w3.org/2000/svg" viewBox="0 0 1000 1000" role="img" aria-label="mehendi medallion">
  <title>Mehendi medallion</title>
  <g fill="none" stroke="#F2A72E" stroke-width="1">
    <circle cx="500" cy="500" r="480"/>
    <circle cx="500" cy="500" r="420"/>
    <circle cx="500" cy="500" r="340"/>
    <circle cx="500" cy="500" r="260"/>
    <circle cx="500" cy="500" r="180"/>
    <circle cx="500" cy="500" r="100"/>
    <line x1="500" y1="20" x2="500" y2="980"/>
    <line x1="20" y1="500" x2="980" y2="500"/>
    <line x1="160" y1="160" x2="840" y2="840"/>
    <line x1="840" y1="160" x2="160" y2="840"/>
    <line x1="500" y1="20" x2="290" y2="980" stroke-dasharray="2 4"/>
    <line x1="500" y1="20" x2="710" y2="980" stroke-dasharray="2 4"/>
    <line x1="20" y1="500" x2="980" y2="290" stroke-dasharray="2 4"/>
    <line x1="20" y1="500" x2="980" y2="710" stroke-dasharray="2 4"/>
  </g>
  <g fill="#F2A72E" opacity="0.7">
    <circle cx="500" cy="20" r="4"/><circle cx="500" cy="980" r="4"/>
    <circle cx="20" cy="500" r="4"/><circle cx="980" cy="500" r="4"/>
  </g>
  <polygon points="500,360 520,470 630,470 540,535 575,645 500,580 425,645 460,535 370,470 480,470" fill="#F2A72E" opacity="0.55"/>
  <g fill="none" stroke="#F2A72E" stroke-width="0.8" opacity="0.7">
    <path d="M500 100 Q540 200 500 260 Q460 200 500 100Z"/>
    <path d="M500 740 Q540 840 500 900 Q460 840 500 740Z"/>
    <path d="M100 500 Q200 540 260 500 Q200 460 100 500Z"/>
    <path d="M740 500 Q840 540 900 500 Q840 460 740 500Z"/>
  </g>
</svg>
